<svg width="29" height="30" viewBox="0 0 29 30" fill="none" xmlns="http://www.w3.org/2000/svg">
<g clip-path="url(#clip0_617_278)">
<path fill-rule="evenodd" clip-rule="evenodd" d="M29.0002 15.2413C29.0002 14.1841 28.9054 13.1691 28.7312 12.1934H14.7964V17.9579H22.7597C22.4168 19.8209 21.3742 21.399 19.8074 22.4561V26.1948H24.5899C27.3874 23.6003 29.0016 19.7802 29.0016 15.2413H29.0002Z" fill="white"/>
<path fill-rule="evenodd" clip-rule="evenodd" d="M14.7962 29.8054C18.7911 29.8054 22.1407 28.4703 24.5883 26.1945L19.8059 22.4558C18.4803 23.3501 16.7867 23.878 14.7948 23.878C10.9407 23.878 7.67899 21.2568 6.51509 17.7344H1.57373V21.5952C4.00887 26.4655 9.01156 29.8054 14.7962 29.8054Z" fill="white"/>
<path fill-rule="evenodd" clip-rule="evenodd" d="M6.51646 17.7347C6.22096 16.8404 6.0523 15.8858 6.0523 14.903C6.0523 13.9203 6.22096 12.9656 6.51646 12.0713V8.21045H1.57371C0.571497 10.2223 0 12.4981 0 14.903C0 17.308 0.571497 19.5837 1.57371 21.5956L6.51646 17.7347Z" fill="white"/>
<path fill-rule="evenodd" clip-rule="evenodd" d="M14.7962 5.92742C16.9679 5.92742 18.9194 6.67993 20.4527 8.15546L24.6971 3.88048C22.1337 1.47694 18.7842 0 14.7962 0C9.01156 0 4.00887 3.33996 1.57373 8.21022L6.51648 12.071C7.68039 8.54856 10.9421 5.92742 14.7962 5.92742Z" fill="white"/>
</g>
<defs>
<clipPath id="clip0_617_278">
<rect width="29" height="29.8056" fill="white"/>
</clipPath>
</defs>
</svg>
