<svg width="31" height="31" viewBox="0 0 31 31" fill="none" xmlns="http://www.w3.org/2000/svg">
<mask id="path-1-inside-1_580_279" fill="white">
<path d="M15.2557 0C6.82989 0 0 5.92817 0 13.2419C0 18.0016 2.89382 22.1744 7.23785 24.508C6.91851 25.8155 6.08208 29.246 5.91509 29.9794C5.70781 30.8905 6.21831 30.8784 6.55376 30.6348C6.8167 30.4426 10.7337 27.5171 12.4242 26.2546C13.3419 26.4042 14.2882 26.483 15.2565 26.483C23.6823 26.483 30.5122 20.5556 30.5122 13.2419C30.5122 5.92817 23.6823 0 15.2565 0"/>
</mask>
<path d="M7.23785 24.508L8.2093 24.7452L8.39293 23.9933L7.71109 23.6271L7.23785 24.508ZM5.91509 29.9794L4.94004 29.7574L4.94 29.7576L5.91509 29.9794ZM6.55376 30.6348L7.14145 31.4439L7.14386 31.4421L6.55376 30.6348ZM12.4242 26.2546L12.585 25.2676L12.166 25.1993L11.8258 25.4534L12.4242 26.2546ZM15.2557 -1C6.41522 -1 -1 5.24765 -1 13.2419H1C1 6.60869 7.24455 1 15.2557 1V-1ZM-1 13.2419C-1 18.4326 2.15544 22.9129 6.76461 25.3889L7.71109 23.6271C3.63221 21.4359 1 17.5707 1 13.2419H-1ZM6.2664 24.2707C5.94859 25.572 5.10931 29.014 4.94004 29.7574L6.89013 30.2014C7.05485 29.478 7.88843 26.059 8.2093 24.7452L6.2664 24.2707ZM4.94 29.7576C4.87222 30.0555 4.83779 30.3783 4.89865 30.6913C4.96408 31.0278 5.15377 31.3951 5.54242 31.6127C5.90218 31.8141 6.26737 31.7932 6.50792 31.7378C6.75501 31.6808 6.97117 31.5676 7.14145 31.4439L5.96608 29.8257C5.96863 29.8238 5.99519 29.8035 6.05869 29.7889C6.11564 29.7757 6.30327 29.7466 6.51938 29.8676C6.76439 30.0047 6.84435 30.2194 6.86188 30.3096C6.87483 30.3762 6.85432 30.3588 6.89017 30.2012L4.94 29.7576ZM7.14386 31.4421C7.41234 31.2459 11.3371 28.3146 13.0226 27.0558L11.8258 25.4534C10.1304 26.7196 6.22107 29.6393 5.96366 29.8275L7.14386 31.4421ZM12.2633 27.2416C13.2338 27.3997 14.2339 27.483 15.2565 27.483V25.483C14.3425 25.483 13.45 25.4086 12.585 25.2676L12.2633 27.2416ZM15.2565 27.483C24.0969 27.483 31.5122 21.2362 31.5122 13.2419H29.5122C29.5122 19.875 23.2677 25.483 15.2565 25.483V27.483ZM31.5122 13.2419C31.5122 5.24765 24.097 -1 15.2565 -1V1C23.2677 1 29.5122 6.60869 29.5122 13.2419H31.5122Z" fill="white" mask="url(#path-1-inside-1_580_279)"/>
<path d="M4.61179 10.8039H6.18212C6.18212 10.8039 6.19237 15.5395 6.18358 16.6428C6.18578 17.4478 7.8169 17.459 7.8147 16.6549L7.82202 10.8658C7.82202 10.8658 8.34791 10.8698 9.38429 10.8706C10.3606 10.8706 10.3613 9.18514 9.38502 9.18434C8.28492 9.18434 4.6096 9.15137 4.6096 9.15137C3.6882 9.15298 3.69113 10.8047 4.61179 10.8047" fill="white"/>
<mask id="mask0_580_279" style="mask-type:luminance" maskUnits="userSpaceOnUse" x="3" y="9" width="8" height="9">
<path d="M4.61179 10.8039H6.18212C6.18212 10.8039 6.19237 15.5395 6.18358 16.6428C6.18578 17.4478 7.8169 17.459 7.8147 16.6549L7.82202 10.8658C7.82202 10.8658 8.34791 10.8698 9.38429 10.8706C10.3606 10.8706 10.3613 9.18514 9.38502 9.18434C8.28492 9.18434 4.6096 9.15137 4.6096 9.15137C3.6882 9.15298 3.69113 10.8047 4.61179 10.8047" fill="white"/>
</mask>
<g mask="url(#mask0_580_279)">
<path d="M10.3614 9.15039H3.68823V17.4588H10.3614V9.15039Z" fill="white"/>
</g>
<path d="M12.1281 11.1107L13.0018 14.1166H11.1803L12.1281 11.1107ZM11.1488 9.70261C10.7628 10.637 9.3668 15.0486 8.90317 16.2194C8.56772 17.0654 10.0128 17.7553 10.3475 16.9094L10.6617 15.7032H13.535C13.535 15.7032 13.4362 15.7522 13.8178 16.8587C14.1268 17.7529 15.6188 17.1329 15.309 16.2379C14.8681 14.9585 13.3417 10.3556 13.0634 9.70342C12.9352 9.40186 12.4745 9.18555 12.0292 9.18555C11.66 9.18555 11.3004 9.33351 11.1473 9.70342" fill="white"/>
<mask id="mask1_580_279" style="mask-type:luminance" maskUnits="userSpaceOnUse" x="8" y="9" width="8" height="9">
<path d="M12.1281 11.1107L13.0018 14.1166H11.1803L12.1281 11.1107ZM11.1488 9.70261C10.7628 10.637 9.3668 15.0486 8.90317 16.2194C8.56772 17.0654 10.0128 17.7553 10.3475 16.9094L10.6617 15.7032H13.535C13.535 15.7032 13.4362 15.7522 13.8178 16.8587C14.1268 17.7529 15.6188 17.1329 15.309 16.2379C14.8681 14.9585 13.3417 10.3556 13.0634 9.70342C12.9352 9.40186 12.4745 9.18555 12.0292 9.18555C11.66 9.18555 11.3004 9.33351 11.1473 9.70342" fill="white"/>
</mask>
<g mask="url(#mask1_580_279)">
<path d="M15.619 9.18555H8.56787V17.7553H15.619V9.18555Z" fill="white"/>
</g>
<path d="M15.8601 9.97941C15.863 11.4791 15.8682 16.3113 15.8682 16.3113C15.8682 16.3113 15.7422 17.2714 16.4922 17.2714C17.2422 17.2714 18.907 17.2626 19.6453 17.2626C20.3836 17.2626 20.3792 15.5393 19.6416 15.5393C18.9041 15.5393 17.5564 15.5304 17.5564 15.5304C17.5564 15.5304 17.563 11.0602 17.5608 9.97459C17.5593 9.44948 17.136 9.18652 16.7119 9.18652C16.2878 9.18652 15.8608 9.45109 15.8616 9.97861" fill="white"/>
<mask id="mask2_580_279" style="mask-type:luminance" maskUnits="userSpaceOnUse" x="15" y="9" width="6" height="9">
<path d="M15.8601 9.97941C15.863 11.4791 15.8682 16.3113 15.8682 16.3113C15.8682 16.3113 15.7422 17.2714 16.4922 17.2714C17.2422 17.2714 18.907 17.2626 19.6453 17.2626C20.3836 17.2626 20.3792 15.5393 19.6416 15.5393C18.9041 15.5393 17.5564 15.5304 17.5564 15.5304C17.5564 15.5304 17.563 11.0602 17.5608 9.97459C17.5593 9.44948 17.136 9.18652 16.7119 9.18652C16.2878 9.18652 15.8608 9.45109 15.8616 9.97861" fill="white"/>
</mask>
<g mask="url(#mask2_580_279)">
<path d="M20.3828 9.1875H15.7422V17.2724H20.3828V9.1875Z" fill="white"/>
</g>
<path d="M20.5796 9.73966C20.5957 10.3975 20.5605 16.3433 20.5605 16.784C20.5605 17.4796 22.1734 17.478 22.1726 16.7832C22.1726 15.9758 22.1726 14.4439 22.1726 14.4439L22.6465 14.0274L24.7163 17.1282C25.1353 17.7345 26.4515 16.6392 26.034 16.0329L23.8352 12.8541C23.8352 12.8541 25.3272 11.0826 25.9153 10.4409C26.2588 10.067 25.1961 8.89129 24.8526 9.26682C24.52 9.62869 22.1829 12.1979 22.1829 12.1979C22.1829 12.1979 22.2041 10.5848 22.1821 9.69302C22.1741 9.35448 21.7954 9.19043 21.4087 9.19043C20.9949 9.19043 20.5708 9.3778 20.5796 9.74047" fill="white"/>
<mask id="mask3_580_279" style="mask-type:luminance" maskUnits="userSpaceOnUse" x="20" y="9" width="7" height="9">
<path d="M20.5796 9.73966C20.5957 10.3975 20.5605 16.3433 20.5605 16.784C20.5605 17.4796 22.1734 17.478 22.1726 16.7832C22.1726 15.9758 22.1726 14.4439 22.1726 14.4439L22.6465 14.0274L24.7163 17.1282C25.1353 17.7345 26.4515 16.6392 26.034 16.0329L23.8352 12.8541C23.8352 12.8541 25.3272 11.0826 25.9153 10.4409C26.2588 10.067 25.1961 8.89129 24.8526 9.26682C24.52 9.62869 22.1829 12.1979 22.1829 12.1979C22.1829 12.1979 22.2041 10.5848 22.1821 9.69302C22.1741 9.35448 21.7954 9.19043 21.4087 9.19043C20.9949 9.19043 20.5708 9.3778 20.5796 9.74047" fill="white"/>
</mask>
<g mask="url(#mask3_580_279)">
<path d="M26.4515 8.89062H20.5598V17.7338H26.4515V8.89062Z" fill="white"/>
</g>
</svg>
