<svg width="185" height="35" viewBox="0 0 185 35" fill="none" xmlns="http://www.w3.org/2000/svg">
<path d="M34.7502 14.1325H21.9255V16.4762H35.7072V19.4038H0V16.4762H13.6947V14.1325H3.88046L0.957065 11.4576V1.2547H34.7502V4.18226H9.18782V11.2049H34.7502V14.1325Z" fill="#643E23"/>
<path d="M57.4675 34.9652H43.9381L40.8494 32.2467V1.25471H49.0801V32.0376H57.4762V34.9652H57.4675ZM53.996 13.6794H59.7993V0.836487H67.4036V34.9652H59.7993V16.607H53.996V13.6794ZM69.9528 0.836487H77.5572V34.9652H69.9528V0.836487Z" fill="#643E23"/>
<path d="M173.159 3.13667H164.807V0H156.576V3.13667H148.223V6.06422H150.103C150.016 6.70898 149.981 7.4583 149.981 8.32088V14.7162C149.981 15.6049 150.033 16.3717 150.129 17.0164C150.225 17.6612 150.442 18.1752 150.773 18.5673C151.103 18.9594 151.599 19.2469 152.252 19.4212C152.904 19.6042 153.774 19.6913 154.862 19.6913H166.512C167.6 19.6913 168.47 19.6042 169.122 19.4212C169.775 19.2382 170.271 18.9507 170.601 18.5673C170.932 18.1752 171.149 17.6612 171.245 17.0164C171.341 16.3717 171.393 15.6049 171.393 14.7162V8.32088C171.393 7.37117 171.341 6.62185 171.228 6.06422H173.151V3.13667H173.159ZM163.806 15.7269C163.806 16.119 163.745 16.3891 163.615 16.5459C163.493 16.7028 163.232 16.7725 162.84 16.7725H158.542C158.151 16.7725 157.898 16.694 157.768 16.5459C157.646 16.3891 157.577 16.119 157.577 15.7269V7.31889C157.577 6.92681 157.637 6.65671 157.768 6.49987C157.89 6.34304 158.151 6.27333 158.542 6.27333H162.84C163.232 6.27333 163.484 6.35175 163.615 6.49987C163.737 6.65671 163.806 6.92681 163.806 7.31889V15.7269Z" fill="#643E23"/>
<path d="M172.829 7.3625H176.378V0.836487H184.609V19.7001H176.378V15.4743H172.829V12.5467H176.378V10.2901H172.829V7.3625Z" fill="#643E23"/>
<path d="M27.9638 21.582H7.74364C4.06329 21.582 1.04419 24.5967 1.04419 28.291C1.04419 31.9853 4.05459 35 7.74364 35H27.9551C31.6355 35 34.6546 31.9853 34.6546 28.291C34.6546 24.5967 31.6442 21.582 27.9551 21.582H27.9638ZM27.1286 28.474C27.1286 30.173 25.7365 31.5671 24.0398 31.5671H11.6589C9.96229 31.5671 8.5702 30.173 8.5702 28.474V28.108C8.5702 26.409 9.96229 25.0149 11.6589 25.0149H24.0398C25.7365 25.0149 27.1286 26.409 27.1286 28.108V28.474Z" fill="#643E23"/>
<path d="M177.788 21.5471H157.228C153.478 21.5471 150.416 24.5618 150.416 28.2561C150.416 31.9504 153.478 34.9651 157.228 34.9651H177.788C181.538 34.9651 184.6 31.9504 184.6 28.2561C184.6 24.5618 181.538 21.5471 177.788 21.5471ZM176.953 28.4304C176.953 30.1294 175.543 31.5235 173.812 31.5235H161.213C159.482 31.5235 158.072 30.1294 158.072 28.4304V28.0644C158.072 26.3654 159.482 24.9713 161.213 24.9713H173.812C175.543 24.9713 176.953 26.3654 176.953 28.0644V28.4304Z" fill="#643E23"/>
<path d="M131.709 2.7533C129.073 2.7533 126.924 4.9054 126.924 7.54543V14.9514H100.822V7.54543C100.822 4.9054 98.6733 2.7533 96.037 2.7533C93.4008 2.7533 91.2517 4.9054 91.2517 7.54543V29.3278C91.2517 31.9592 93.4008 34.12 96.037 34.12C98.6733 34.12 100.822 31.9592 100.822 29.3278V21.9218H126.924V29.3278C126.924 31.9592 129.073 34.12 131.709 34.12C134.346 34.12 136.495 31.9592 136.495 29.3278V7.54543C136.495 4.9054 134.346 2.7533 131.709 2.7533Z" fill="#FF9549"/>
</svg>
