<svg width="1440" height="199" viewBox="0 0 1440 199" fill="none" xmlns="http://www.w3.org/2000/svg">
<circle cx="719.797" cy="32.7974" r="22.4969" transform="rotate(-30.111 719.797 32.7974)" fill="white" stroke="#FF9549" stroke-width="3"/>
<line x1="705.547" y1="41.3396" x2="732.829" y2="25.5173" stroke="#FF9549" stroke-width="3"/>
<line x1="725.293" y1="20.6752" x2="733.419" y2="34.687" stroke="#FF9549" stroke-width="3" stroke-linecap="round" stroke-linejoin="round"/>
<line x1="706.587" y1="31.5235" x2="714.713" y2="45.5352" stroke="#FF9549" stroke-width="3" stroke-linecap="round" stroke-linejoin="round"/>
<line x1="731.006" y1="22.1168" x2="735.005" y2="29.0114" stroke="#FF9549" stroke-width="3" stroke-linecap="round" stroke-linejoin="round"/>
<line x1="704.909" y1="37.2519" x2="708.908" y2="44.1464" stroke="#FF9549" stroke-width="3" stroke-linecap="round" stroke-linejoin="round"/>
<rect y="120" width="1440" height="79" fill="#FF9549"/>
<path d="M618.675 160.044C618.675 158.49 619.935 157.23 621.503 157.244C622.861 157.23 623.995 158.196 624.163 159.456H622.903C622.777 158.868 622.175 158.448 621.503 158.448C620.607 158.448 619.893 159.162 619.879 160.044C619.893 160.94 620.607 161.654 621.503 161.668C622.175 161.654 622.707 161.234 622.819 160.632H624.079C623.911 161.906 622.861 162.872 621.503 162.872C619.935 162.872 618.675 161.612 618.675 160.044ZM616.351 160.044C616.365 157.23 618.647 154.948 621.447 154.948C624.289 154.948 626.557 157.23 626.571 160.044C626.571 162.858 624.289 165.154 621.447 165.168C618.647 165.154 616.337 162.858 616.351 160.044ZM617.639 160.044C617.625 162.144 619.347 163.866 621.447 163.852C623.561 163.866 625.283 162.158 625.283 160.044C625.255 157.944 623.561 156.236 621.447 156.236C619.361 156.236 617.653 157.944 617.639 160.044ZM631.892 165V163.908L635.336 160.436C636.414 159.316 636.96 158.686 636.96 157.832C636.96 156.852 636.162 156.222 635.112 156.236C634.02 156.222 633.32 156.922 633.32 157.972H631.892C631.892 156.166 633.264 154.962 635.168 154.976C637.058 154.962 638.388 156.166 638.388 157.776C638.388 158.882 637.856 159.764 636.008 161.584L633.992 163.628V163.712H638.556V165H631.892ZM643.649 165.14C641.367 165.14 640.023 163.292 640.009 160.044C640.023 156.838 641.381 154.962 643.649 154.976C645.931 154.962 647.289 156.838 647.289 160.044C647.289 163.292 645.945 165.14 643.649 165.14ZM641.521 160.044C641.521 162.522 642.319 163.838 643.649 163.852C644.993 163.838 645.791 162.522 645.777 160.044C645.791 157.594 644.979 156.236 643.649 156.236C642.333 156.236 641.521 157.594 641.521 160.044ZM648.832 165V163.908L652.276 160.436C653.354 159.316 653.9 158.686 653.9 157.832C653.9 156.852 653.102 156.222 652.052 156.236C650.96 156.222 650.26 156.922 650.26 157.972H648.832C648.832 156.166 650.204 154.962 652.108 154.976C653.998 154.962 655.328 156.166 655.328 157.776C655.328 158.882 654.796 159.764 652.948 161.584L650.932 163.628V163.712H655.496V165H648.832ZM656.743 163.068V161.864L661.111 155.088H662.959V161.808H664.303V163.068H662.959V165H661.531V163.068H656.743ZM658.311 161.808H661.531V156.88H661.447L658.311 161.724V161.808ZM680.01 159.876V160.912H668.81V159.876H673.766V158.56H670.21V154.472H678.61V155.508H671.498V157.524H678.694V158.56H675.026V159.876H680.01ZM670.126 163.936C670.14 162.508 671.736 161.71 674.382 161.724C677.028 161.71 678.61 162.508 678.61 163.936C678.61 165.35 677.028 166.148 674.382 166.148C671.736 166.148 670.14 165.35 670.126 163.936ZM671.47 163.936C671.442 164.72 672.52 165.154 674.382 165.14C676.244 165.154 677.308 164.72 677.322 163.936C677.308 163.166 676.244 162.718 674.382 162.704C672.52 162.718 671.442 163.166 671.47 163.936ZM682.758 155.172V161.976C684.018 161.976 685.208 161.892 686.566 161.612L686.762 162.704C685.152 163.054 683.794 163.11 682.282 163.124H681.47V155.172H682.758ZM684.914 159.008V157.944H687.602V154.192H688.834V165.56H687.602V159.008H684.914ZM690.206 166.148V153.912H691.438V166.148H690.206ZM699.926 155.2V156.236H693.038V155.2H695.894V153.8H697.182V155.2H699.926ZM693.71 159.092C693.71 157.706 694.858 156.796 696.538 156.796C698.176 156.796 699.352 157.706 699.366 159.092C699.352 160.45 698.176 161.346 696.538 161.36C694.858 161.346 693.71 160.45 693.71 159.092ZM694.942 159.092C694.914 159.876 695.558 160.366 696.538 160.38C697.476 160.366 698.134 159.876 698.162 159.092C698.134 158.28 697.476 157.776 696.538 157.776C695.558 157.776 694.914 158.28 694.942 159.092ZM694.998 164.048C694.984 162.69 696.566 161.92 699.142 161.92C701.718 161.92 703.286 162.69 703.286 164.048C703.286 165.364 701.718 166.148 699.142 166.148C696.566 166.148 694.984 165.364 694.998 164.048ZM696.342 164.048C696.342 164.748 697.392 165.154 699.142 165.14C700.878 165.154 701.914 164.748 701.914 164.048C701.914 163.306 700.878 162.928 699.142 162.928C697.392 162.928 696.342 163.306 696.342 164.048ZM699.954 160.24V159.176H701.942V157.832H699.954V156.768H701.942V153.912H703.23V161.808H701.942V160.24H699.954ZM708.611 162.9C708.625 161.22 710.067 160.772 711.383 160.688C711.887 160.646 713.021 160.59 713.343 160.576V159.988C713.343 159.148 712.839 158.658 711.831 158.644C710.977 158.658 710.459 159.05 710.319 159.596H708.863C708.989 158.378 710.137 157.482 711.887 157.468C713.077 157.482 714.799 157.916 714.799 160.072V165H713.371V163.992H713.315C713.049 164.538 712.363 165.168 711.131 165.168C709.717 165.168 708.625 164.356 708.611 162.9ZM710.039 162.928C710.053 163.628 710.641 163.992 711.439 163.992C712.643 163.992 713.357 163.208 713.343 162.312V161.64L711.607 161.752C710.655 161.822 710.053 162.186 710.039 162.928ZM718.019 155.088V165H716.563V155.088H718.019ZM721.273 155.088V165H719.817V155.088H721.273ZM726.489 165V157.58H727.889V158.756H727.973C728.239 157.958 728.995 157.468 729.849 157.468C730.031 157.468 730.325 157.482 730.465 157.496V158.896C730.353 158.854 730.017 158.798 729.709 158.812C728.701 158.798 727.945 159.512 727.945 160.464V165H726.489ZM731.561 165V157.58H733.017V165H731.561ZM731.365 155.564C731.351 155.088 731.771 154.696 732.289 154.696C732.779 154.696 733.185 155.088 733.185 155.564C733.185 156.04 732.779 156.432 732.289 156.432C731.771 156.432 731.351 156.04 731.365 155.564ZM737.923 167.94C736.047 167.94 734.815 167.114 734.675 165.728H736.187C736.313 166.428 736.971 166.764 737.951 166.764C739.099 166.764 739.827 166.274 739.827 165.112V163.656H739.743C739.477 164.118 738.945 164.888 737.587 164.888C735.837 164.888 734.479 163.586 734.479 161.22C734.479 158.84 735.809 157.482 737.615 157.468C738.973 157.482 739.491 158.308 739.743 158.784H739.855V157.58H741.283V165.168C741.283 167.072 739.841 167.94 737.923 167.94ZM735.963 161.248C735.963 162.69 736.635 163.684 737.923 163.684C739.155 163.684 739.855 162.774 739.855 161.248C739.855 159.736 739.169 158.714 737.923 158.728C736.621 158.714 735.963 159.82 735.963 161.248ZM744.529 160.604V165H743.073V155.088H744.501V158.784H744.613C744.949 157.986 745.635 157.482 746.797 157.468C748.323 157.482 749.345 158.42 749.345 160.268V165H747.889V160.464C747.875 159.372 747.287 158.742 746.293 158.728C745.271 158.742 744.529 159.414 744.529 160.604ZM754.584 157.58V158.728H753.072V162.816C753.058 163.656 753.478 163.796 753.94 163.796C754.164 163.81 754.486 163.782 754.668 163.768V165.028C754.486 165.07 754.178 165.098 753.772 165.112C752.624 165.098 751.602 164.468 751.616 163.124V158.728H750.524V157.58H751.616V155.788H753.072V157.58H754.584ZM760.055 159.596C759.915 159.008 759.439 158.63 758.627 158.616C757.801 158.63 757.213 159.064 757.199 159.624C757.213 160.058 757.563 160.38 758.375 160.576L759.551 160.828C760.923 161.15 761.581 161.808 761.595 162.844C761.581 164.188 760.447 165.154 758.543 165.14C756.765 165.154 755.715 164.356 755.519 162.984H757.031C757.157 163.642 757.661 163.978 758.543 163.992C759.481 163.978 760.097 163.586 760.083 162.956C760.097 162.48 759.733 162.172 758.935 162.004L757.787 161.752C756.457 161.444 755.757 160.73 755.743 159.708C755.757 158.392 756.905 157.482 758.627 157.468C760.279 157.482 761.315 158.322 761.455 159.596H760.055ZM766.438 165V157.58H767.838V158.756H767.922C768.188 157.958 768.944 157.468 769.798 157.468C769.98 157.468 770.274 157.482 770.414 157.496V158.896C770.302 158.854 769.966 158.798 769.658 158.812C768.65 158.798 767.894 159.512 767.894 160.464V165H766.438ZM774.47 165.14C772.286 165.154 770.942 163.642 770.942 161.332C770.942 159.05 772.3 157.482 774.358 157.468C776.066 157.482 777.676 158.532 777.662 161.22V161.724H772.398C772.426 163.152 773.252 163.95 774.498 163.936C775.31 163.95 775.856 163.586 776.094 163.124H777.578C777.242 164.342 776.108 165.154 774.47 165.14ZM772.398 160.632H776.234C776.234 159.512 775.506 158.672 774.386 158.672C773.224 158.672 772.468 159.582 772.398 160.632ZM783.284 159.596C783.144 159.008 782.668 158.63 781.856 158.616C781.03 158.63 780.442 159.064 780.428 159.624C780.442 160.058 780.792 160.38 781.604 160.576L782.78 160.828C784.152 161.15 784.81 161.808 784.824 162.844C784.81 164.188 783.676 165.154 781.772 165.14C779.994 165.154 778.944 164.356 778.748 162.984H780.26C780.386 163.642 780.89 163.978 781.772 163.992C782.71 163.978 783.326 163.586 783.312 162.956C783.326 162.48 782.962 162.172 782.164 162.004L781.016 161.752C779.686 161.444 778.986 160.73 778.972 159.708C778.986 158.392 780.134 157.482 781.856 157.468C783.508 157.482 784.544 158.322 784.684 159.596H783.284ZM789.441 165.14C787.257 165.154 785.913 163.642 785.913 161.332C785.913 159.05 787.271 157.482 789.329 157.468C791.037 157.482 792.647 158.532 792.633 161.22V161.724H787.369C787.397 163.152 788.223 163.95 789.469 163.936C790.281 163.95 790.827 163.586 791.065 163.124H792.549C792.213 164.342 791.079 165.154 789.441 165.14ZM787.369 160.632H791.205C791.205 159.512 790.477 158.672 789.357 158.672C788.195 158.672 787.439 159.582 787.369 160.632ZM794.083 165V157.58H795.483V158.756H795.567C795.833 157.958 796.589 157.468 797.443 157.468C797.625 157.468 797.919 157.482 798.059 157.496V158.896C797.947 158.854 797.611 158.798 797.303 158.812C796.295 158.798 795.539 159.512 795.539 160.464V165H794.083ZM805.743 157.58L803.055 165H801.487L798.799 157.58H800.367L802.243 163.292H802.299L804.175 157.58H805.743ZM809.88 165.14C807.696 165.154 806.352 163.642 806.352 161.332C806.352 159.05 807.71 157.482 809.768 157.468C811.476 157.482 813.086 158.532 813.072 161.22V161.724H807.808C807.836 163.152 808.662 163.95 809.908 163.936C810.72 163.95 811.266 163.586 811.504 163.124H812.988C812.652 164.342 811.518 165.154 809.88 165.14ZM807.808 160.632H811.644C811.644 159.512 810.916 158.672 809.796 158.672C808.634 158.672 807.878 159.582 807.808 160.632ZM817.294 165.14C815.502 165.14 814.186 163.698 814.186 161.304C814.186 158.896 815.516 157.482 817.322 157.468C818.68 157.482 819.184 158.308 819.45 158.784H819.534V155.088H820.99V165H819.562V163.852H819.45C819.17 164.328 818.652 165.14 817.294 165.14ZM815.67 161.276C815.67 162.774 816.342 163.908 817.63 163.908C818.862 163.908 819.562 162.844 819.562 161.276C819.562 159.736 818.876 158.714 817.63 158.728C816.328 158.714 815.67 159.82 815.67 161.276ZM823.841 165.084C823.309 165.098 822.861 164.664 822.861 164.132C822.861 163.586 823.309 163.152 823.841 163.152C824.359 163.152 824.807 163.586 824.793 164.132C824.807 164.664 824.359 165.098 823.841 165.084Z" fill="white"/>
<path d="M615.814 89.2402V90.6482H610.342V93.2402H608.582V90.6482H602.886V89.2402H615.814ZM604.262 85.4642C604.262 83.6882 606.294 82.5842 609.35 82.5842C612.374 82.5842 614.39 83.6882 614.406 85.4642C614.39 87.2402 612.374 88.3442 609.35 88.3442C606.294 88.3442 604.262 87.2402 604.262 85.4642ZM604.486 96.1202V91.9282H606.214V94.6802H614.374V96.1202H604.486ZM606.15 85.4642C606.134 86.4082 607.398 86.9522 609.35 86.9682C611.286 86.9522 612.534 86.4082 612.55 85.4642C612.534 84.5042 611.286 83.9602 609.35 83.9602C607.398 83.9602 606.134 84.5042 606.15 85.4642ZM629.61 89.0482V90.4242H616.746V89.0482H622.346V87.6722H618.314V82.9042H628.074V84.2802H620.042V86.2962H628.138V87.6722H624.042V89.0482H629.61ZM618.218 93.8162C618.234 92.1522 620.09 91.2242 623.146 91.2242C626.202 91.2242 628.042 92.1522 628.042 93.8162C628.042 95.4482 626.202 96.3922 623.146 96.4082C620.09 96.3922 618.234 95.4482 618.218 93.8162ZM620.01 93.8162C619.994 94.6322 621.098 95.0482 623.146 95.0322C625.178 95.0482 626.298 94.6322 626.314 93.8162C626.298 93.0002 625.178 92.5682 623.146 92.5682C621.098 92.5682 619.994 93.0002 620.01 93.8162ZM646.194 82.2642V89.5602H644.466V88.0242H641.618V89.1122H635.026V82.9042H636.754V84.6642H639.922V82.9042H641.618V84.1522H644.466V82.2642H646.194ZM636.754 87.7362H639.922V86.0082H636.754V87.7362ZM636.882 91.5122V90.1362H646.194V93.7842H638.642V94.8402H646.642V96.2162H636.914V92.4722H644.466V91.5122H636.882ZM641.618 86.7122H644.466V85.4642H641.618V86.7122ZM660.022 82.2642V96.3762H658.294V89.2082H655.318V87.7682H658.294V82.2642H660.022ZM648.118 92.4722C651.766 90.6802 653.334 88.3122 653.606 85.1442H648.758V83.7682H655.382C655.366 87.9442 653.878 91.4482 649.014 93.8482L648.118 92.4722ZM669.055 90.5202V92.0562H670.911V90.5202H672.511V95.0162C674.175 94.3282 674.943 92.9042 674.943 91.5442V90.4242H676.671V91.5442C676.671 93.0162 677.423 94.4402 679.167 95.0322L678.271 96.3442C677.023 95.8802 676.223 95.0162 675.791 93.9602C675.311 95.0002 674.511 95.8642 673.343 96.3442L672.511 95.0802V96.2162H667.423V90.5202H669.055ZM666.047 86.1362C666.031 84.2002 667.599 82.8402 669.759 82.8402C671.599 82.8402 673.023 83.8642 673.391 85.4002H675.935V82.2642H677.663V89.7522H675.935V86.8402H673.391C673.055 88.4082 671.599 89.4482 669.759 89.4322C667.599 89.4482 666.031 88.0882 666.047 86.1362ZM667.679 86.1362C667.695 87.2722 668.543 88.0082 669.759 88.0242C670.959 88.0082 671.807 87.2722 671.807 86.1362C671.807 85.0002 670.959 84.2802 669.759 84.2802C668.543 84.2802 667.695 85.0002 667.679 86.1362ZM669.055 94.8722H670.911V93.3362H669.055V94.8722ZM690.723 82.2642V87.6082H692.899V89.0482H690.723V96.4082H688.995V82.2642H690.723ZM680.259 92.9522V83.6082H686.851V85.0162H681.987V91.5122C684.179 91.4962 685.907 91.3842 687.875 91.0322L688.067 92.5042C685.875 92.8882 683.971 92.9522 681.411 92.9522H680.259ZM695.207 95.1282C694.551 95.1282 693.991 94.5842 693.991 93.9122C693.991 93.2562 694.551 92.7122 695.207 92.6962C695.863 92.7122 696.423 93.2562 696.423 93.9122C696.423 94.5842 695.863 95.1282 695.207 95.1282ZM709.228 83.6722V85.0482H701.324V83.6722H704.492V82.1362H706.22V83.6722H709.228ZM702.092 88.2482C702.076 86.6642 703.42 85.6082 705.356 85.5922C707.276 85.6082 708.652 86.6642 708.652 88.2482C708.652 89.8162 707.276 90.8562 705.356 90.8722C703.42 90.8562 702.076 89.8162 702.092 88.2482ZM703.564 93.9122C703.564 92.3762 705.404 91.4642 708.396 91.4482C711.372 91.4642 713.212 92.3762 713.228 93.9122C713.212 95.4642 711.372 96.3762 708.396 96.3762C705.404 96.3762 703.564 95.4642 703.564 93.9122ZM703.692 88.2482C703.692 89.0802 704.348 89.5602 705.356 89.5602C706.348 89.5602 707.036 89.0802 707.052 88.2482C707.036 87.4002 706.348 86.9042 705.356 86.9042C704.348 86.9042 703.692 87.4002 703.692 88.2482ZM705.388 93.9122C705.388 94.6482 706.476 95.0482 708.396 95.0322C710.284 95.0482 711.356 94.6482 711.372 93.9122C711.356 93.1762 710.284 92.7922 708.396 92.7922C706.476 92.7922 705.388 93.1762 705.388 93.9122ZM709.292 89.6562V88.2482H711.404V86.8722H709.324V85.4642H711.404V82.2642H713.132V91.3202H711.404V89.6562H709.292ZM726.896 82.2642V96.4082H725.136V82.2642H726.896ZM715.6 88.2802C715.584 85.2402 717.136 83.3042 719.28 83.2882C721.408 83.3042 722.96 85.2402 722.96 88.2802C722.96 91.3522 721.408 93.2882 719.28 93.2722C717.136 93.2882 715.584 91.3522 715.6 88.2802ZM717.264 88.2802C717.264 90.4562 718.08 91.7202 719.28 91.7042C720.464 91.7202 721.28 90.4562 721.296 88.2802C721.28 86.1362 720.464 84.8562 719.28 84.8562C718.08 84.8562 717.264 86.1362 717.264 88.2802ZM740.116 82.2962V85.6562H742.1V87.0962H740.116V90.7442H738.356V82.2962H740.116ZM729.492 84.5042V83.1282H735.956V87.1922H731.252V88.6962C733.636 88.6802 735.3 88.5842 737.236 88.2482L737.396 89.6562C735.3 90.0402 733.46 90.1202 730.676 90.1042H729.524V85.8802H734.26V84.5042H729.492ZM730.708 93.7522C730.708 92.0882 732.532 91.0802 735.508 91.0962C738.42 91.0802 740.244 92.0882 740.244 93.7522C740.244 95.4002 738.42 96.3602 735.508 96.3442C732.532 96.3602 730.708 95.4002 730.708 93.7522ZM732.436 93.7522C732.42 94.6002 733.524 95.0482 735.508 95.0322C737.444 95.0482 738.532 94.6002 738.548 93.7522C738.532 92.9042 737.444 92.4402 735.508 92.4402C733.524 92.4402 732.42 92.9042 732.436 93.7522ZM757.757 82.2642V85.3362H759.741V86.7442H757.757V89.7202H755.997V82.2642H757.757ZM746.589 88.6002C750.109 87.9442 751.789 86.4242 751.981 84.6322H747.261V83.2562H753.917C753.917 86.9042 751.565 89.1282 747.325 89.9762L746.589 88.6002ZM748.573 96.2162V90.2962H757.789V91.5762H750.301V92.6002H757.661V93.8482H750.301V94.9042H758.109V96.2162H748.573ZM772.193 82.2642V96.4082H770.433V82.2642H772.193ZM760.897 88.2802C760.881 85.2402 762.433 83.3042 764.577 83.2882C766.705 83.3042 768.257 85.2402 768.257 88.2802C768.257 91.3522 766.705 93.2882 764.577 93.2722C762.433 93.2882 760.881 91.3522 760.897 88.2802ZM762.561 88.2802C762.561 90.4562 763.377 91.7202 764.577 91.7042C765.761 91.7202 766.577 90.4562 766.593 88.2802C766.577 86.1362 765.761 84.8562 764.577 84.8562C763.377 84.8562 762.561 86.1362 762.561 88.2802ZM790.985 89.2402V90.6482H785.513V93.2402H783.753V90.6482H778.057V89.2402H790.985ZM779.433 85.4642C779.433 83.6882 781.465 82.5842 784.521 82.5842C787.545 82.5842 789.561 83.6882 789.577 85.4642C789.561 87.2402 787.545 88.3442 784.521 88.3442C781.465 88.3442 779.433 87.2402 779.433 85.4642ZM779.657 96.1202V91.9282H781.385V94.6802H789.545V96.1202H779.657ZM781.321 85.4642C781.305 86.4082 782.569 86.9522 784.521 86.9682C786.457 86.9522 787.705 86.4082 787.721 85.4642C787.705 84.5042 786.457 83.9602 784.521 83.9602C782.569 83.9602 781.305 84.5042 781.321 85.4642ZM804.782 89.0482V90.4242H791.918V89.0482H797.518V87.6722H793.486V82.9042H803.246V84.2802H795.214V86.2962H803.31V87.6722H799.214V89.0482H804.782ZM793.39 93.8162C793.406 92.1522 795.262 91.2242 798.318 91.2242C801.374 91.2242 803.214 92.1522 803.214 93.8162C803.214 95.4482 801.374 96.3922 798.318 96.4082C795.262 96.3922 793.406 95.4482 793.39 93.8162ZM795.182 93.8162C795.166 94.6322 796.27 95.0482 798.318 95.0322C800.35 95.0482 801.47 94.6322 801.486 93.8162C801.47 93.0002 800.35 92.5682 798.318 92.5682C796.27 92.5682 795.166 93.0002 795.182 93.8162ZM816.786 82.2642V87.8962H818.962V89.3362H816.786V96.3762H815.09V82.2642H816.786ZM805.65 85.8482V84.4402H809.01V82.4562H810.738V84.4402H814.002V85.8482H805.65ZM806.322 90.0722C806.306 88.1202 807.81 86.7442 809.874 86.7442C811.906 86.7442 813.41 88.1202 813.426 90.0722C813.41 92.0242 811.906 93.3842 809.874 93.4002C807.81 93.3842 806.306 92.0242 806.322 90.0722ZM807.986 90.0722C807.97 91.2242 808.77 91.9602 809.874 91.9602C810.962 91.9602 811.746 91.2242 811.762 90.0722C811.746 88.9202 810.962 88.1682 809.874 88.1842C808.77 88.1682 807.97 88.9202 807.986 90.0722ZM824.63 86.2642C824.614 88.4562 825.926 90.9522 828.15 91.9922L827.19 93.3682C825.59 92.6162 824.422 91.0962 823.782 89.3202C823.142 91.2722 821.91 92.9362 820.278 93.7202L819.254 92.3442C821.51 91.2722 822.886 88.6322 822.902 86.2642V85.0802H819.798V83.6722H827.574V85.0802H824.63V86.2642ZM828.886 96.3762V82.2642H830.614V87.7682H832.79V89.2082H830.614V96.3762H828.886ZM836.314 83.6722L836.122 91.6722H834.362L834.17 83.6722H836.314ZM834.01 93.9122C834.01 93.2562 834.57 92.7122 835.226 92.6962C835.882 92.7122 836.442 93.2562 836.442 93.9122C836.442 94.5842 835.882 95.1282 835.226 95.1282C834.57 95.1282 834.01 94.5842 834.01 93.9122Z" fill="#643E23"/>
</svg>
